<svg width="15" height="15" viewBox="0 0 15 15" fill="none" xmlns="http://www.w3.org/2000/svg">
<path d="M0.519531 1.43359L3.36328 0.777344C3.66406 0.695312 3.99219 0.859375 4.12891 1.16016L5.44141 4.22266C5.55078 4.49609 5.46875 4.79688 5.25 4.98828L3.58203 6.35547C4.56641 8.43359 6.28906 10.1836 8.42188 11.1953L9.78906 9.52734C9.98047 9.30859 10.2812 9.22656 10.5547 9.33594L13.6172 10.6484C13.918 10.7852 14.0547 11.1133 14 11.4141L13.3438 14.2578C13.2617 14.5586 13.0156 14.75 12.6875 14.75C5.6875 14.75 0 9.08984 0 2.0625C0 1.76172 0.21875 1.51562 0.519531 1.43359Z" fill="white"/>
</svg>
